<?xml version="1.0" encoding="utf-8"?>
<!-- Generator: Adobe Illustrator 17.1.0, SVG Export Plug-In . SVG Version: 6.00 Build 0)  -->
<!DOCTYPE svg PUBLIC "-//W3C//DTD SVG 1.1//EN" "http://www.w3.org/Graphics/SVG/1.1/DTD/svg11.dtd">
<svg version="1.1" xmlns="http://www.w3.org/2000/svg" xmlns:xlink="http://www.w3.org/1999/xlink" x="0px" y="0px"
	 viewBox="0 0 48 48" enable-background="new 0 0 48 48" xml:space="preserve">
<g id="Layer_2" display="none">
</g>
<g id="Layer_1">
	<g>
		<path fill="#888888" d="M29.09,29.11c1.27-1.26,3.13-1.62,4.82-1.23c1.71-2.78,2.74-6.03,2.74-9.53c0-10.12-8.2-18.32-18.33-18.32
			C8.21,0.02,0,8.23,0,18.35c0,10.12,8.21,18.32,18.32,18.32c3.49,0,6.73-1.03,9.5-2.73C27.42,32.26,27.78,30.42,29.09,29.11z
			 M18.32,29.38c-6.09,0-11.02-4.94-11.02-11.03S12.24,7.32,18.32,7.32c6.1,0,11.03,4.94,11.03,11.03S24.42,29.38,18.32,29.38z"/>
		<path fill="#888888" d="M47,42.23L35.11,30.34c-0.6-0.6-1.4-0.92-2.24-0.96c-0.05,0-0.1-0.03-0.15-0.03
			c-0.91,0-1.76,0.35-2.4,0.99c-0.7,0.7-1,1.63-0.96,2.55c0.04,0.82,0.34,1.62,0.96,2.24l11.89,11.89c1.28,1.28,3.52,1.28,4.79,0
			c0.64-0.64,1-1.49,1-2.4S47.65,42.88,47,42.23z"/>
	</g>
</g>
</svg>
