<svg version="1.1" id="search" xmlns="http://www.w3.org/2000/svg" xmlns:xlink="http://www.w3.org/1999/xlink" x="0px" y="0px"
	 viewBox="0 0 24 24" enable-background="new 0 0 24 24" xml:space="preserve">
<path d="M21.8,20.4l-5.4-5.4c1.1-1.4,1.7-3.1,1.7-4.9c0-2.1-0.8-4.1-2.3-5.7c-1.5-1.5-3.5-2.3-5.7-2.3S6,3,4.5,4.5
	C3,6,2.2,8,2.2,10.1s0.8,4.1,2.3,5.7c1.5,1.5,3.5,2.3,5.7,2.3c1.8,0,3.5-0.6,4.9-1.7l5.4,5.4L21.8,20.4z M5.9,14.4
	c-1.1-1.1-1.8-2.6-1.8-4.2c0-1.6,0.6-3.1,1.8-4.2c1.1-1.1,2.6-1.8,4.2-1.8s3.1,0.6,4.2,1.8c1.1,1.1,1.8,2.6,1.8,4.2
	c0,1.6-0.6,3.1-1.8,4.2c-1.1,1.1-2.6,1.8-4.2,1.8S7.1,15.5,5.9,14.4z"/>
</svg>
