<svg xmlns="http://www.w3.org/2000/svg"><symbol viewBox="0 0 24 24" id="snl-icon-calendar"><title>calendar</title> <path d="M21,3.5h-3v-2h-2v6h2v-2h3v15H3v-15h2v-2H3c-1.1,0-2,0.9-2,2v15c0,1.1,0.9,2,2,2h18c1.1,0,2-0.9,2-2v-15
		C23,4.4,22.1,3.5,21,3.5z"/> <polygon points="8,5.5 15,5.5 15,3.5 8,3.5 8,1.5 6,1.5 6,7.5 8,7.5 	"/> <rect x="5" y="9.5" width="4" height="4"/> <rect x="10" y="9.5" width="4" height="4"/> <rect x="15" y="9.5" width="4" height="4"/> <rect x="5" y="14.5" width="4" height="4"/> <rect x="10" y="14.5" width="4" height="4"/> </symbol><symbol viewBox="0 0 24 24" id="snl-icon-caret"><title>caret</title> <polygon points="18,8 12,16 6,8 "/> </symbol><symbol viewBox="0 0 24 24" id="snl-icon-check"><title>check</title> <polygon points="21.3,6.4 19.2,4.3 9,14.5 4.8,10.3 2.7,12.4 9,18.7 "/> </symbol><symbol viewBox="0 0 24 24" id="snl-icon-chevron"><title>chevron</title> <polygon points="8.8,3.5 6.7,5.6 13.1,12 6.7,18.4 8.8,20.5 17.3,12 "/> </symbol><symbol viewBox="0 0 24 24" id="snl-icon-close"><title>close</title> <polygon points="18.4,20.5 20.5,18.4 14.1,12 20.5,5.6 18.4,3.5 12,9.9 5.6,3.5 3.5,5.6 9.9,12 3.5,18.4 5.6,20.5 
	12,14.1 "/> </symbol><symbol viewBox="0 0 24 24" id="snl-icon-draggable-lg"><title>draggable-lg</title> <circle cx="11.8" cy="14.5" r="1"/> <circle cx="11.8" cy="19.5" r="1"/> <circle cx="11.8" cy="9.5" r="1"/> <circle cx="7.8" cy="14.5" r="1"/> <circle cx="7.8" cy="19.5" r="1"/> <circle cx="7.8" cy="9.5" r="1"/> <circle cx="11.8" cy="4.5" r="1"/> <circle cx="7.8" cy="4.5" r="1"/> <circle cx="15.8" cy="14.5" r="1"/> <circle cx="15.8" cy="19.5" r="1"/> <circle cx="15.8" cy="9.5" r="1"/> <circle cx="15.8" cy="4.5" r="1"/> </symbol><symbol viewBox="0 0 24 24" id="snl-icon-draggable-sm"><title>draggable-sm</title> <g> <g> <circle cx="10.4" cy="12.5" r="1"/> <circle cx="10.4" cy="7.5" r="1"/> <circle cx="10.4" cy="17.5" r="1"/> <circle cx="14.4" cy="12.5" r="1"/> <circle cx="14.4" cy="7.5" r="1"/> <circle cx="14.4" cy="17.5" r="1"/> </g> </g> </symbol><symbol viewBox="0 0 24 24" id="snl-icon-envelope"><title>envelope</title> <path d="M20,5.5H4c-1.1,0-2,0.9-2,2v9c0,1.1,0.9,2,2,2h16c1.1,0,2-0.9,2-2v-9C22,6.4,21.1,5.5,20,5.5z M18.1,7.5
	L12,11.3L5.9,7.5H18.1z M4,16.5V8.7l7.5,4.7c0.2,0.1,0.3,0.2,0.5,0.2s0.4-0.1,0.5-0.2L20,8.7l0,7.8H4z"/> </symbol><symbol viewBox="0 0 24 24" id="snl-icon-flag"><title>flag</title> <path d="M15.6,4l-3.1,3.1L11,8.5l1.5,1.4l3.1,3.1H5.5V4H15.6 M20.5,2h-17v0v13v7h2v-7h15l-6.6-6.5L20.5,2L20.5,2z"/> </symbol><symbol viewBox="0 0 24 24" id="snl-icon-pencil"><title>pencil</title> <g> <path d="M19.1,9.1l0.7-0.7c1.4-1.4,1.4-2.8,0-4.2c-1.4-1.4-2.9-1.4-4.3,0l-0.6,0.6L19.1,9.1z"/> <path d="M3.4,20.6c0.2,0.2,0.5,0.3,0.9,0.2l4.2-1.1l-0.7-3.5l-3.5-0.7l-1.1,4.2C3.1,20,3.2,20.4,3.4,20.6z"/> <polygon points="17.7,10.6 13.4,6.3 5.5,14.2 9.2,14.8 9.9,18.3 	"/> </g> </symbol><symbol viewBox="0 0 24 24" id="snl-icon-search"><title>search</title> <path d="M21.8,20.4l-5.4-5.4c1.1-1.4,1.7-3.1,1.7-4.9c0-2.1-0.8-4.1-2.3-5.7c-1.5-1.5-3.5-2.3-5.7-2.3S6,3,4.5,4.5
	C3,6,2.2,8,2.2,10.1s0.8,4.1,2.3,5.7c1.5,1.5,3.5,2.3,5.7,2.3c1.8,0,3.5-0.6,4.9-1.7l5.4,5.4L21.8,20.4z M5.9,14.4
	c-1.1-1.1-1.8-2.6-1.8-4.2c0-1.6,0.6-3.1,1.8-4.2c1.1-1.1,2.6-1.8,4.2-1.8s3.1,0.6,4.2,1.8c1.1,1.1,1.8,2.6,1.8,4.2
	c0,1.6-0.6,3.1-1.8,4.2c-1.1,1.1-2.6,1.8-4.2,1.8S7.1,15.5,5.9,14.4z"/> </symbol></svg>