<?xml version="1.0" standalone="no"?>
<!DOCTYPE svg PUBLIC "-//W3C//DTD SVG 20010904//EN"
 "http://www.w3.org/TR/2001/REC-SVG-20010904/DTD/svg10.dtd">
<svg version="1.0" xmlns="http://www.w3.org/2000/svg"
 width="700.000000pt" height="700.000000pt" viewBox="0 0 700.000000 700.000000"
 preserveAspectRatio="xMidYMid meet">
<metadata>
Sandia National Laboratories
</metadata>
<g transform="translate(0.000000,700.000000) scale(0.100000,-0.100000)"
fill="#000000" stroke="none">
<path d="M2748 6865 c-2 -2 -97 -6 -213 -10 -115 -4 -230 -8 -255 -10 -25 -2
-103 -6 -175 -10 -71 -3 -146 -8 -165 -10 -19 -2 -78 -6 -130 -10 -101 -7
-157 -12 -230 -20 -25 -2 -72 -7 -105 -10 -273 -27 -402 -61 -575 -152 -310
-165 -557 -480 -644 -825 -27 -103 -36 -170 -51 -358 -3 -41 -8 -86 -10 -100
-2 -14 -6 -72 -10 -130 -4 -58 -8 -126 -11 -152 -2 -26 -6 -96 -9 -155 -4 -59
-8 -137 -10 -173 -13 -234 -19 -591 -19 -1265 0 -783 6 -1066 29 -1404 3 -47
8 -124 10 -171 3 -47 8 -110 10 -140 3 -30 7 -84 10 -120 3 -36 7 -81 10 -100
3 -19 7 -66 10 -105 31 -424 242 -795 580 -1020 116 -78 290 -152 395 -170
119 -20 152 -24 215 -30 126 -11 179 -16 215 -20 19 -2 80 -7 135 -11 55 -3
118 -8 140 -9 521 -43 2112 -54 2820 -20 131 6 342 17 370 20 17 1 82 5 145 9
63 4 126 9 140 11 14 2 59 6 100 10 41 3 91 7 110 10 19 2 62 7 95 10 320 31
636 208 829 465 22 30 44 57 47 60 16 13 102 173 132 245 29 67 70 203 82 264
10 57 21 161 30 286 3 50 8 101 10 115 5 28 8 64 31 405 23 345 29 654 28
1425 0 680 -5 1000 -19 1256 -2 38 -7 119 -10 179 -3 61 -8 130 -10 155 -2 25
-7 95 -11 155 -3 61 -7 117 -9 125 -2 8 -6 53 -9 100 -10 130 -30 283 -42 322
-3 9 -7 25 -9 35 -16 82 -99 264 -172 378 -185 289 -508 512 -813 561 -67 11
-461 51 -580 59 -41 3 -102 8 -135 10 -70 5 -203 13 -365 20 -63 4 -158 8
-210 11 -103 5 -1717 14 -1722 9z m1727 -719 c33 -2 125 -7 205 -11 199 -8
408 -21 480 -30 19 -2 72 -7 117 -10 46 -3 91 -8 100 -9 10 -2 41 -7 68 -10
166 -24 352 -102 433 -184 100 -101 172 -253 197 -417 16 -109 24 -178 30
-260 4 -49 8 -101 10 -115 6 -37 24 -313 30 -460 2 -52 7 -178 11 -280 10
-242 10 -1545 0 -1770 -4 -96 -9 -218 -11 -270 -2 -52 -6 -129 -9 -170 -3 -41
-8 -110 -11 -153 -3 -42 -7 -94 -10 -115 -2 -20 -7 -75 -10 -122 -3 -47 -7
-92 -10 -100 -2 -8 -6 -42 -10 -75 -9 -93 -52 -242 -93 -325 -48 -97 -150
-201 -247 -252 -72 -38 -209 -82 -286 -93 -24 -3 -55 -8 -69 -10 -14 -2 -52
-7 -85 -9 -133 -12 -202 -18 -235 -21 -19 -2 -89 -6 -155 -10 -66 -4 -136 -8
-155 -10 -19 -2 -125 -6 -235 -10 -110 -4 -227 -8 -260 -10 -76 -5 -1344 -5
-1485 0 -518 17 -708 27 -1075 60 -408 36 -619 163 -728 435 -27 69 -30 81
-52 200 -13 74 -20 126 -29 225 -19 195 -18 182 -31 395 -4 63 -9 133 -10 155
-20 301 -27 1647 -11 2050 12 322 15 396 21 470 2 39 7 111 10 160 3 50 8 101
10 115 2 14 7 66 10 115 7 98 7 101 24 225 15 102 60 244 104 320 40 71 137
167 209 208 53 31 164 74 219 86 79 18 121 25 174 31 33 3 76 8 95 10 19 3 71
7 115 11 44 3 96 8 115 9 19 2 87 6 150 10 63 3 139 8 169 10 30 2 149 7 265
11 116 3 213 8 215 10 6 5 1655 -4 1726 -10z"/>
<path d="M3068 5785 c-2 -2 -111 -6 -243 -10 -132 -4 -269 -9 -305 -10 -36 -2
-81 -3 -100 -4 l-35 -1 0 -113 c-1 -145 -14 -332 -26 -364 -5 -13 -9 -26 -9
-27 0 -2 26 -2 58 -1 31 2 145 6 252 10 107 4 200 8 205 8 6 1 10 -26 9 -68
-2 -137 -13 -438 -17 -441 -7 -7 -1426 -5 -1452 2 -23 6 -25 3 -26 -27 -1 -19
-2 -63 -4 -99 -1 -36 -6 -166 -11 -290 -11 -287 -11 -1266 -1 -1562 5 -125 10
-272 12 -326 2 -55 7 -193 10 -308 4 -115 8 -211 10 -213 2 -2 37 -5 77 -7 40
-2 107 -6 148 -8 41 -3 122 -8 180 -11 58 -3 131 -8 163 -10 l58 -5 -6 122
c-12 200 -14 260 -20 569 l-6 296 118 -4 c65 -2 125 -5 134 -7 12 -3 16 6 16
43 0 25 3 129 7 231 11 315 19 544 19 573 l1 27 273 0 c151 0 272 -3 270 -7
-3 -5 -8 -100 -12 -213 -3 -113 -8 -261 -10 -330 -5 -123 -10 -267 -20 -570
-3 -85 -8 -207 -10 -270 -2 -63 -7 -203 -10 -310 -4 -107 -8 -233 -10 -280 -2
-47 -6 -179 -10 -295 -4 -115 -9 -213 -12 -218 -2 -4 -1 -7 4 -8 176 -18 1304
-18 1508 0 6 1 10 24 9 54 -6 172 -16 468 -19 562 -12 394 -17 532 -20 620 -2
55 -7 192 -10 305 -4 113 -8 243 -10 290 -2 47 -6 186 -10 310 -4 124 -8 255
-9 293 l-3 67 269 0 268 0 1 -87 c1 -49 2 -115 4 -148 1 -33 6 -157 10 -275
11 -321 12 -354 14 -362 0 -3 9 -4 19 -2 9 2 68 5 130 7 l114 3 -7 -325 c-3
-179 -8 -351 -10 -381 -2 -30 -6 -105 -9 -167 l-7 -111 68 4 c37 2 106 6 153
9 47 2 130 7 185 11 200 11 217 13 221 16 2 2 6 78 9 169 3 90 7 218 10 284 2
66 7 208 10 315 4 107 8 247 10 310 5 145 5 869 0 1055 -5 206 -16 519 -24
678 -1 14 -6 16 -28 11 -21 -6 -1277 -10 -1413 -5 -21 1 -25 6 -26 34 -1 28
-10 243 -19 437 -2 36 -6 137 -10 225 -4 88 -8 174 -10 192 -1 17 1 51 5 75 5
23 7 45 4 47 -2 2 -36 6 -76 8 -83 4 -966 11 -970 8z"/>
</g>
</svg>
