<svg xmlns="http://www.w3.org/2000/svg" style="display:none;">
    <symbol viewBox="0 0 24 24" id="snl-icon-calendar">
        <title>calendar</title>
        <path d="M21,3.5h-3v-2h-2v6h2v-2h3v15H3v-15h2v-2H3c-1.1,0-2,0.9-2,2v15c0,1.1,0.9,2,2,2h18c1.1,0,2-0.9,2-2v-15
		C23,4.4,22.1,3.5,21,3.5z"/>
        <polygon points="8,5.5 15,5.5 15,3.5 8,3.5 8,1.5 6,1.5 6,7.5 8,7.5 	"/>
        <rect x="5" y="9.5" width="4" height="4"/>
        <rect x="10" y="9.5" width="4" height="4"/>
        <rect x="15" y="9.5" width="4" height="4"/>
        <rect x="5" y="14.5" width="4" height="4"/>
        <rect x="10" y="14.5" width="4" height="4"/>
    </symbol>
    <symbol viewBox="0 0 24 24" id="snl-icon-caret">
        <title>caret</title>
        <polygon points="18,8 12,16 6,8 "/>
    </symbol>
    <symbol viewBox="0 0 24 24" id="snl-icon-check">
        <title>check</title>
        <polygon points="21.3,6.4 19.2,4.3 9,14.5 4.8,10.3 2.7,12.4 9,18.7 "/>
    </symbol>
    <symbol viewBox="0 0 24 24" id="snl-icon-chevron">
        <title>chevron</title>
        <polygon points="8.8,3.5 6.7,5.6 13.1,12 6.7,18.4 8.8,20.5 17.3,12 "/>
    </symbol>
    <symbol viewBox="0 0 24 24" id="snl-icon-close">
        <title>close</title>
        <polygon points="18.4,20.5 20.5,18.4 14.1,12 20.5,5.6 18.4,3.5 12,9.9 5.6,3.5 3.5,5.6 9.9,12 3.5,18.4 5.6,20.5
	12,14.1 "/>
    </symbol>
    <symbol viewBox="0 0 24 24" id="snl-icon-draggable-lg">
        <title>draggable-lg</title>
        <circle cx="11.8" cy="14.5" r="1"/>
        <circle cx="11.8" cy="19.5" r="1"/>
        <circle cx="11.8" cy="9.5" r="1"/>
        <circle cx="7.8" cy="14.5" r="1"/>
        <circle cx="7.8" cy="19.5" r="1"/>
        <circle cx="7.8" cy="9.5" r="1"/>
        <circle cx="11.8" cy="4.5" r="1"/>
        <circle cx="7.8" cy="4.5" r="1"/>
        <circle cx="15.8" cy="14.5" r="1"/>
        <circle cx="15.8" cy="19.5" r="1"/>
        <circle cx="15.8" cy="9.5" r="1"/>
        <circle cx="15.8" cy="4.5" r="1"/>
    </symbol>
    <symbol viewBox="0 0 24 24" id="snl-icon-draggable-sm">
        <title>draggable-sm</title>
        <g>
            <g>
                <circle cx="10.4" cy="12.5" r="1"/>
                <circle cx="10.4" cy="7.5" r="1"/>
                <circle cx="10.4" cy="17.5" r="1"/>
                <circle cx="14.4" cy="12.5" r="1"/>
                <circle cx="14.4" cy="7.5" r="1"/>
                <circle cx="14.4" cy="17.5" r="1"/>
            </g>
        </g>
    </symbol>
    <symbol viewBox="0 0 24 24" id="snl-icon-envelope">
        <title>envelope</title>
        <path d="M20,5.5H4c-1.1,0-2,0.9-2,2v9c0,1.1,0.9,2,2,2h16c1.1,0,2-0.9,2-2v-9C22,6.4,21.1,5.5,20,5.5z M18.1,7.5
	L12,11.3L5.9,7.5H18.1z M4,16.5V8.7l7.5,4.7c0.2,0.1,0.3,0.2,0.5,0.2s0.4-0.1,0.5-0.2L20,8.7l0,7.8H4z"/>
    </symbol>
    <symbol viewBox="0 0 24 24" id="snl-icon-flag">
        <title>flag</title>
        <path d="M15.6,4l-3.1,3.1L11,8.5l1.5,1.4l3.1,3.1H5.5V4H15.6 M20.5,2h-17v0v13v7h2v-7h15l-6.6-6.5L20.5,2L20.5,2z"/>
    </symbol>
    <symbol viewBox="0 0 24 24" id="snl-icon-info">
        <title>info</title>
        <path d="M12,1.5C6.5,1.5,2,6,2,11.5s4.5,10,10,10s10-4.5,10-10S17.5,1.5,12,1.5z M13,16.5h-2v-6h2V16.5z M13,8.5h-2v-2h2V8.5z"/>
    </symbol>
    <symbol viewBox="0 0 24 24" id="snl-icon-offsite">
        <title>offsite</title>
        <path d="M19,18.5H5v-14h7v-2H5c-1.1,0-2,0.9-2,2v14c0,1.1,0.9,2,2,2h14c1.1,0,2-0.9,2-2v-7h-2V18.5z M14,2.5v2h3.6l-9.8,9.8l1.4,1.4
	L19,5.9v3.6h2v-7H14z"/>
    </symbol>
    <symbol viewBox="0 0 24 24" id="snl-icon-pencil">
        <title>pencil</title>
        <g>
            <path d="M19.1,9.1l0.7-0.7c1.4-1.4,1.4-2.8,0-4.2c-1.4-1.4-2.9-1.4-4.3,0l-0.6,0.6L19.1,9.1z"/>
            <path d="M3.4,20.6c0.2,0.2,0.5,0.3,0.9,0.2l4.2-1.1l-0.7-3.5l-3.5-0.7l-1.1,4.2C3.1,20,3.2,20.4,3.4,20.6z"/>
            <polygon points="17.7,10.6 13.4,6.3 5.5,14.2 9.2,14.8 9.9,18.3 	"/>
        </g>
    </symbol>
    <symbol viewBox="0 0 24 24" id="snl-icon-refresh">
        <title>refresh</title>
        <path d="M12,2.2c-2.7,0-5.2,1.1-7.1,2.9L3,3.2v6h6L6.4,6.5C7.8,5,9.8,4.2,12,4.2c4.4,0,8,3.6,8,8s-3.6,8-8,8s-8-3.6-8-8H2
	c0,5.5,4.5,10,10,10s10-4.5,10-10C22,6.7,17.5,2.2,12,2.2z"/>
    </symbol>
    <symbol viewBox="0 0 48 48" id="snl-icon-search-icon">
        <title>search-icon</title>
        <g id="search-icon-Layer_1">
            <g>
                <path fill="#888888" d="M29.09,29.11c1.27-1.26,3.13-1.62,4.82-1.23c1.71-2.78,2.74-6.03,2.74-9.53c0-10.12-8.2-18.32-18.33-18.32
			C8.21,0.02,0,8.23,0,18.35c0,10.12,8.21,18.32,18.32,18.32c3.49,0,6.73-1.03,9.5-2.73C27.42,32.26,27.78,30.42,29.09,29.11z
			 M18.32,29.38c-6.09,0-11.02-4.94-11.02-11.03S12.24,7.32,18.32,7.32c6.1,0,11.03,4.94,11.03,11.03S24.42,29.38,18.32,29.38z"/>
                <path fill="#888888" d="M47,42.23L35.11,30.34c-0.6-0.6-1.4-0.92-2.24-0.96c-0.05,0-0.1-0.03-0.15-0.03
			c-0.91,0-1.76,0.35-2.4,0.99c-0.7,0.7-1,1.63-0.96,2.55c0.04,0.82,0.34,1.62,0.96,2.24l11.89,11.89c1.28,1.28,3.52,1.28,4.79,0
			c0.64-0.64,1-1.49,1-2.4S47.65,42.88,47,42.23z"/>
            </g>
        </g>
    </symbol>
    <symbol viewBox="0 0 24 24" id="snl-icon-search">
        <title>search</title>
        <path d="M21.8,20.4l-5.4-5.4c1.1-1.4,1.7-3.1,1.7-4.9c0-2.1-0.8-4.1-2.3-5.7c-1.5-1.5-3.5-2.3-5.7-2.3S6,3,4.5,4.5
	C3,6,2.2,8,2.2,10.1s0.8,4.1,2.3,5.7c1.5,1.5,3.5,2.3,5.7,2.3c1.8,0,3.5-0.6,4.9-1.7l5.4,5.4L21.8,20.4z M5.9,14.4
	c-1.1-1.1-1.8-2.6-1.8-4.2c0-1.6,0.6-3.1,1.8-4.2c1.1-1.1,2.6-1.8,4.2-1.8s3.1,0.6,4.2,1.8c1.1,1.1,1.8,2.6,1.8,4.2
	c0,1.6-0.6,3.1-1.8,4.2c-1.1,1.1-2.6,1.8-4.2,1.8S7.1,15.5,5.9,14.4z"/>
    </symbol>
    <symbol viewBox="0 0 24 24" id="snl-icon-uparrow">
        <title>uparrow</title>
        <polygon points="17.6,12 11.6,4 5.6,12 9,12 9,21 14,21 14,12 "/>
    </symbol>
    <symbol viewBox="0 0 24 24" id="snl-icon-warning">
        <title>warning</title>
        <path d="M1,21h22L12,2L1,21z M13,18h-2v-2h2V18z M13,14h-2v-4h2V14z"/>
    </symbol>
</svg>